<svg width="24" height="24" viewBox="0 0 24 24" fill="none" xmlns="http://www.w3.org/2000/svg">
<g clip-path="url(#clip0_176_3)">
<path d="M18 13C15.24 13 13 15.24 13 18C13 20.76 15.24 23 18 23C20.76 23 23 20.76 23 18C23 15.24 20.76 13 18 13ZM21 18.5H18.5V21H17.5V18.5H15V17.5H17.5V15H18.5V17.5H21V18.5Z" fill="#D82E85"/>
<path d="M11.69 15C12.05 14.25 12.53 13.57 13.12 13H7V11H18C19.07 11 20.09 11.25 21 11.69V5C21 3.9 20.1 3 19 3H14.82C14.4 1.84 13.3 1 12 1C10.7 1 9.6 1.84 9.18 3H5C3.9 3 3 3.9 3 5V19C3 20.1 3.9 21 5 21H11.69C11.25 20.09 11 19.07 11 18C11 17.66 11.03 17.33 11.08 17H7V15H11.69ZM12 2.75C12.41 2.75 12.75 3.09 12.75 3.5C12.75 3.91 12.41 4.25 12 4.25C11.59 4.25 11.25 3.91 11.25 3.5C11.25 3.09 11.59 2.75 12 2.75ZM7 7H17V9H7V7Z" fill="#D82E85"/>
</g>
<defs>
<clipPath id="clip0_176_3">
<rect width="24" height="24" fill="white"/>
</clipPath>
</defs>
</svg>
