<svg width="34" height="34" viewBox="0 0 34 34" fill="none" xmlns="http://www.w3.org/2000/svg">
<path d="M8.50002 26.9166H12.75V19.8333C12.75 19.4319 12.886 19.0957 13.158 18.8246C13.43 18.5536 13.7662 18.4176 14.1667 18.4166H19.8334C20.2347 18.4166 20.5714 18.5526 20.8434 18.8246C21.1154 19.0966 21.251 19.4329 21.25 19.8333V26.9166H25.5V14.1666L17 7.79165L8.50002 14.1666V26.9166ZM5.66669 26.9166V14.1666C5.66669 13.718 5.76727 13.293 5.96844 12.8916C6.1696 12.4903 6.4468 12.1597 6.80002 11.9L15.3 5.52498C15.7959 5.1472 16.3625 4.95831 17 4.95831C17.6375 4.95831 18.2042 5.1472 18.7 5.52498L27.2 11.9C27.5542 12.1597 27.8319 12.4903 28.033 12.8916C28.2342 13.293 28.3343 13.718 28.3334 14.1666V26.9166C28.3334 27.6958 28.0557 28.3631 27.5004 28.9184C26.945 29.4737 26.2782 29.7509 25.5 29.75H19.8334C19.432 29.75 19.0957 29.614 18.8247 29.342C18.5536 29.07 18.4176 28.7338 18.4167 28.3333V21.25H15.5834V28.3333C15.5834 28.7347 15.4474 29.0714 15.1754 29.3434C14.9034 29.6154 14.5671 29.7509 14.1667 29.75H8.50002C7.72085 29.75 7.05408 29.4728 6.49969 28.9184C5.9453 28.364 5.66763 27.6968 5.66669 26.9166Z" fill="#D82E85"/>
</svg>
