<svg width="28" height="28" viewBox="0 0 28 28" fill="none" xmlns="http://www.w3.org/2000/svg">
<path d="M7.00002 22.1666H10.5V16.3333C10.5 16.0028 10.612 15.7259 10.836 15.5026C11.06 15.2794 11.3369 15.1674 11.6667 15.1666H16.3334C16.6639 15.1666 16.9412 15.2786 17.1652 15.5026C17.3892 15.7266 17.5008 16.0035 17.5 16.3333V22.1666H21V11.6666L14 6.41665L7.00002 11.6666V22.1666ZM4.66669 22.1666V11.6666C4.66669 11.2972 4.74952 10.9472 4.91519 10.6166C5.08085 10.2861 5.30913 10.0139 5.60002 9.79998L12.6 4.54998C13.0084 4.23887 13.475 4.08331 14 4.08331C14.525 4.08331 14.9917 4.23887 15.4 4.54998L22.4 9.79998C22.6917 10.0139 22.9204 10.2861 23.086 10.6166C23.2517 10.9472 23.3341 11.2972 23.3334 11.6666V22.1666C23.3334 22.8083 23.1047 23.3578 22.6474 23.8151C22.19 24.2725 21.6409 24.5008 21 24.5H16.3334C16.0028 24.5 15.7259 24.388 15.5027 24.164C15.2795 23.94 15.1675 23.6631 15.1667 23.3333V17.5H12.8334V23.3333C12.8334 23.6639 12.7214 23.9411 12.4974 24.1651C12.2734 24.3891 11.9965 24.5008 11.6667 24.5H7.00002C6.35835 24.5 5.80924 24.2717 5.35269 23.8151C4.89613 23.3586 4.66746 22.8091 4.66669 22.1666Z" fill="#D82E85"/>
</svg>
