<svg width="34" height="34" viewBox="0 0 34 34" fill="none" xmlns="http://www.w3.org/2000/svg">
<g clip-path="url(#clip0_121_65)">
<path d="M17 8.50002C18.5584 8.50002 19.8334 9.77502 19.8334 11.3334C19.8334 12.8917 18.5584 14.1667 17 14.1667C15.4417 14.1667 14.1667 12.8917 14.1667 11.3334C14.1667 9.77502 15.4417 8.50002 17 8.50002ZM17 22.6667C20.825 22.6667 25.2167 24.4942 25.5 25.5H8.50002C8.82585 24.48 13.1892 22.6667 17 22.6667ZM17 5.66669C13.8692 5.66669 11.3334 8.20252 11.3334 11.3334C11.3334 14.4642 13.8692 17 17 17C20.1309 17 22.6667 14.4642 22.6667 11.3334C22.6667 8.20252 20.1309 5.66669 17 5.66669ZM17 19.8334C13.2175 19.8334 5.66669 21.7317 5.66669 25.5V28.3334H28.3334V25.5C28.3334 21.7317 20.7825 19.8334 17 19.8334Z" fill="#D82E85"/>
</g>
<defs>
<clipPath id="clip0_121_65">
<rect width="34" height="34" fill="white"/>
</clipPath>
</defs>
</svg>
